<?xml version="1.0" encoding="UTF-8" standalone="no"?>
<!-- Created with Inkscape (http://www.inkscape.org/) -->

<svg
   version="1.1"
   id="svg2"
   xml:space="preserve"
   width="509.33334"
   height="387.46667"
   viewBox="0 0 509.33334 387.46667"
   sodipodi:docname="logo.svg"
   inkscape:version="1.2.1 (9c6d41e, 2022-07-14)"
   xmlns:inkscape="http://www.inkscape.org/namespaces/inkscape"
   xmlns:sodipodi="http://sodipodi.sourceforge.net/DTD/sodipodi-0.dtd"
   xmlns="http://www.w3.org/2000/svg"
   xmlns:svg="http://www.w3.org/2000/svg"><defs
     id="defs6" /><sodipodi:namedview
     id="namedview4"
     pagecolor="#ffffff"
     bordercolor="#666666"
     borderopacity="1.0"
     inkscape:pageshadow="2"
     inkscape:pageopacity="0.0"
     inkscape:pagecheckerboard="0"
     inkscape:showpageshadow="2"
     inkscape:deskcolor="#d1d1d1"
     showgrid="false"
     inkscape:zoom="2.446335"
     inkscape:cx="254.66667"
     inkscape:cy="160.85287"
     inkscape:window-width="1390"
     inkscape:window-height="1205"
     inkscape:window-x="487"
     inkscape:window-y="104"
     inkscape:window-maximized="0"
     inkscape:current-layer="g10" /><g
     id="g8"
     inkscape:groupmode="layer"
     inkscape:label="ink_ext_XXXXXX"
     transform="matrix(1.3333333,0,0,-1.3333333,0,387.46667)"><g
       id="g10"
       transform="scale(0.1)"><path
         d="m 3543.33,2410.25 c 0,-66.27 -53.73,-120 -120,-120 H 2156.67 c -66.27,0 -120,53.73 -120,120 v 73.34 c 0,66.27 53.73,120 120,120 h 1266.66 c 66.27,0 120,-53.73 120,-120 v -73.34"
         style="fill:#231f20;fill-opacity:1;fill-rule:nonzero;stroke:none"
         id="path12" /><path
         d="m 1273.41,2601.13 c -7.83,1.6 -15.94,2.45 -24.25,2.45 h -28.96 c -0.07,0 -0.14,0.01 -0.2,0.01 -0.1,0 -0.19,-0.01 -0.28,-0.01 H 429.156 c -66.269,0 -120,-53.72 -120,-120 v -73.33 c 0,-66.28 53.731,-120 120,-120 h 255.938 537.416 c 14.57,0 28.48,-2.73 41.4,-7.48 137,-30.67 239.42,-152.93 239.42,-299.18 0,-146.26 -102.42,-268.52 -239.42,-299.19 -12.92,-4.75 -26.83,-7.48 -41.4,-7.48 H 1089.16 692.758 419.156 c -66.269,0 -120,-53.72 -120,-120 v -0.01 -59.99 -636.658 c 0,-66.274 53.719,-120 120,-120 h 73.328 c 66.282,0 120.012,53.726 120.012,120 v 516.658 h 606.664 c 0.07,0 0.14,0.01 0.21,0.01 0.21,0 0.42,-0.01 0.63,-0.01 338.73,0 613.34,274.6 613.34,613.33 0,320.73 -246.23,583.79 -559.93,610.88"
         style="fill:#231f20;fill-opacity:1;fill-rule:nonzero;stroke:none"
         id="path14" /><path
         d="m 3543.33,1635.25 c 0,-66.28 -53.73,-120 -120,-120 H 2156.67 c -66.27,0 -120,53.72 -120,120 v 73.33 c 0,66.28 53.73,120 120,120 h 1266.66 c 66.27,0 120,-53.72 120,-120 v -73.33"
         style="fill:#231f20;fill-opacity:1;fill-rule:nonzero;stroke:none"
         id="path16" /><path
         d="m 3543.33,860.25 c 0,-66.281 -53.73,-120 -120,-120 H 2156.67 c -66.27,0 -120,53.719 -120,120 v 73.332 c 0,66.277 53.73,119.998 120,119.998 h 1266.66 c 66.27,0 120,-53.721 120,-119.998 V 860.25"
         style="fill:#231f20;fill-opacity:1;fill-rule:nonzero;stroke:none"
         id="path18" /><path
         d="m 454.551,404.23 c 0,12.059 -1.848,22.418 -5.528,31.071 -3.687,8.648 -8.793,15.289 -15.324,19.918 -6.531,4.64 -13.758,6.953 -21.683,6.953 -12.618,0 -23.25,-4.973 -31.899,-14.902 -8.652,-9.938 -12.976,-24.559 -12.976,-43.879 0,-18.192 4.297,-32.34 12.886,-42.45 8.602,-10.101 19.258,-15.152 31.989,-15.152 7.589,0 14.625,2.203 21.097,6.621 6.477,4.399 11.668,11.02 15.575,19.84 3.906,8.82 5.863,19.469 5.863,31.98 z m -89.59,66.481 v -5.52 c 8.594,10.598 17.523,18.391 26.793,23.36 9.266,4.961 19.762,7.449 31.484,7.449 14.063,0 27.012,-3.629 38.848,-10.891 11.832,-7.25 21.18,-17.859 28.047,-31.808 6.863,-13.961 10.297,-30.481 10.297,-49.571 0,-14.07 -1.985,-26.988 -5.942,-38.761 -3.965,-11.778 -9.406,-21.66 -16.328,-29.641 -6.926,-7.988 -15.097,-14.129 -24.531,-18.43 -9.434,-4.289 -19.566,-6.449 -30.391,-6.449 -13.062,0 -24.035,2.633 -32.906,7.883 -8.879,5.238 -17.336,12.938 -25.371,23.109 v -68.66 c 0,-20.101 -7.316,-30.14 -21.938,-30.14 -8.597,0 -14.293,2.589 -17.082,7.781 -2.793,5.199 -4.183,12.758 -4.183,22.687 v 197.27 c 0,8.711 1.894,15.211 5.691,19.512 3.797,4.289 8.989,6.441 15.574,6.441 6.473,0 11.747,-2.203 15.825,-6.613 4.074,-4.41 6.113,-10.75 6.113,-19.008"
         style="fill:#231f20;fill-opacity:1;fill-rule:nonzero;stroke:none"
         id="path20" /><path
         d="M 537.105,338.262 V 536.52 c 0,9.16 2.032,16.082 6.11,20.769 4.074,4.691 9.574,7.031 16.492,7.031 6.926,0 12.504,-2.32 16.746,-6.949 4.246,-4.633 6.363,-11.582 6.363,-20.851 V 338.262 c 0,-9.27 -2.148,-16.223 -6.445,-20.852 -4.301,-4.629 -9.851,-6.961 -16.664,-6.961 -6.695,0 -12.141,2.41 -16.324,7.211 -4.188,4.801 -6.278,11.66 -6.278,20.602"
         style="fill:#231f20;fill-opacity:1;fill-rule:nonzero;stroke:none"
         id="path22" /><path
         d="m 742.574,402.391 c -6.699,-2.45 -16.441,-5.051 -29.222,-7.789 -12.786,-2.731 -21.633,-4.743 -26.539,-6.02 -4.918,-1.293 -9.606,-3.801 -14.071,-7.543 -4.465,-3.738 -6.695,-8.957 -6.695,-15.648 0,-6.93 2.621,-12.821 7.871,-17.672 5.242,-4.86 12.105,-7.289 20.594,-7.289 9.043,0 17.386,1.992 25.035,5.941 7.644,3.969 13.258,9.07 16.832,15.32 4.125,6.93 6.195,18.309 6.195,34.168 z m 3.012,-66.141 c -11.051,-8.602 -21.742,-15.051 -32.066,-19.352 -10.329,-4.289 -21.915,-6.449 -34.75,-6.449 -11.719,0 -22.016,2.332 -30.895,6.961 -8.875,4.629 -15.711,10.91 -20.512,18.84 -4.8,7.922 -7.203,16.52 -7.203,25.789 0,12.5 3.961,23.16 11.891,31.981 7.926,8.82 18.808,14.73 32.656,17.75 2.898,0.671 10.102,2.171 21.602,4.519 11.496,2.352 21.347,4.5 29.554,6.449 8.203,1.953 17.106,4.332 26.711,7.114 -0.562,12.058 -2.988,20.91 -7.285,26.539 -4.297,5.64 -13.203,8.461 -26.711,8.461 -11.609,0 -20.348,-1.622 -26.207,-4.852 -5.863,-3.25 -10.883,-8.102 -15.07,-14.578 -4.188,-6.473 -7.145,-10.742 -8.871,-12.813 -1.735,-2.058 -5.446,-3.089 -11.141,-3.089 -5.137,0 -9.574,1.652 -13.309,4.941 -3.746,3.289 -5.613,7.508 -5.613,12.641 0,8.039 2.848,15.847 8.543,23.437 5.692,7.602 14.567,13.852 26.625,18.762 12.055,4.91 27.07,7.359 45.043,7.359 20.094,0 35.891,-2.371 47.391,-7.101 11.496,-4.758 19.617,-12.258 24.363,-22.528 4.746,-10.281 7.117,-23.89 7.117,-40.859 0,-10.723 -0.027,-19.82 -0.082,-27.301 -0.058,-7.48 -0.14,-15.801 -0.254,-24.949 0,-8.59 1.426,-17.563 4.274,-26.871 2.847,-9.332 4.265,-15.332 4.265,-18 0,-4.692 -2.199,-8.969 -6.609,-12.813 -4.414,-3.847 -9.41,-5.789 -14.988,-5.789 -4.692,0 -9.325,2.211 -13.899,6.633 -4.582,4.398 -9.437,10.797 -14.57,19.168"
         style="fill:#231f20;fill-opacity:1;fill-rule:nonzero;stroke:none"
         id="path24" /><path
         d="m 871.516,304.762 4.183,10.218 -56.265,141.668 c -3.461,8.141 -5.192,14.063 -5.192,17.75 0,3.911 1.008,7.532 3.016,10.883 2.012,3.348 4.773,6.028 8.289,8.039 3.516,2.012 7.172,3.012 10.969,3.012 6.586,0 11.554,-2.09 14.906,-6.281 3.344,-4.192 6.305,-10.18 8.871,-17.992 l 38.684,-112.528 36.671,104.649 c 2.903,8.48 5.528,15.129 7.872,19.929 2.343,4.801 4.824,8.032 7.453,9.711 2.621,1.672 6.332,2.512 11.132,2.512 3.461,0 6.782,-0.922 9.965,-2.762 3.184,-1.851 5.633,-4.328 7.368,-7.449 1.73,-3.129 2.597,-6.43 2.597,-9.883 -0.449,-2.117 -1.176,-5.136 -2.176,-9.047 -1.007,-3.902 -2.238,-7.871 -3.687,-11.882 L 916.559,299.23 c -5.137,-13.73 -10.164,-24.5 -15.071,-32.308 -4.918,-7.813 -11.414,-13.82 -19.511,-18 -8.094,-4.192 -19.004,-6.281 -32.735,-6.281 -13.398,0 -23.445,1.449 -30.14,4.347 -6.7,2.91 -10.047,8.211 -10.047,15.91 0,5.25 1.59,9.293 4.769,12.141 3.184,2.852 7.899,4.27 14.149,4.27 2.457,0 4.859,-0.329 7.203,-1 2.898,-0.68 5.414,-1.008 7.535,-1.008 5.25,0 9.379,0.781 12.391,2.34 3.011,1.57 5.718,4.269 8.121,8.129 2.402,3.851 5.168,9.519 8.293,16.992"
         style="fill:#231f20;fill-opacity:1;fill-rule:nonzero;stroke:none"
         id="path26" /><path
         d="m 1123.2,402.391 c -6.7,-2.45 -16.44,-5.051 -29.23,-7.789 -12.78,-2.731 -21.63,-4.743 -26.53,-6.02 -4.92,-1.293 -9.61,-3.801 -14.07,-7.543 -4.47,-3.738 -6.7,-8.957 -6.7,-15.648 0,-6.93 2.62,-12.821 7.87,-17.672 5.25,-4.86 12.11,-7.289 20.6,-7.289 9.04,0 17.38,1.992 25.03,5.941 7.65,3.969 13.26,9.07 16.83,15.32 4.13,6.93 6.2,18.309 6.2,34.168 z m 3.01,-66.141 c -11.05,-8.602 -21.74,-15.051 -32.06,-19.352 -10.33,-4.289 -21.92,-6.449 -34.76,-6.449 -11.71,0 -22.01,2.332 -30.89,6.961 -8.88,4.629 -15.71,10.91 -20.51,18.84 -4.8,7.922 -7.2,16.52 -7.2,25.789 0,12.5 3.96,23.16 11.89,31.981 7.92,8.82 18.8,14.73 32.65,17.75 2.9,0.671 10.1,2.171 21.6,4.519 11.5,2.352 21.35,4.5 29.56,6.449 8.2,1.953 17.1,4.332 26.71,7.114 -0.56,12.058 -2.99,20.91 -7.29,26.539 -4.29,5.64 -13.2,8.461 -26.71,8.461 -11.61,0 -20.34,-1.622 -26.2,-4.852 -5.87,-3.25 -10.89,-8.102 -15.08,-14.578 -4.18,-6.473 -7.14,-10.742 -8.87,-12.813 -1.73,-2.058 -5.44,-3.089 -11.13,-3.089 -5.14,0 -9.58,1.652 -13.32,4.941 -3.74,3.289 -5.61,7.508 -5.61,12.641 0,8.039 2.85,15.847 8.54,23.437 5.7,7.602 14.57,13.852 26.63,18.762 12.06,4.91 27.07,7.359 45.04,7.359 20.1,0 35.89,-2.371 47.39,-7.101 11.5,-4.758 19.62,-12.258 24.37,-22.528 4.74,-10.281 7.12,-23.89 7.12,-40.859 0,-10.723 -0.03,-19.82 -0.09,-27.301 -0.06,-7.48 -0.14,-15.801 -0.25,-24.949 0,-8.59 1.43,-17.563 4.27,-26.871 2.85,-9.332 4.27,-15.332 4.27,-18 0,-4.692 -2.2,-8.969 -6.61,-12.813 -4.42,-3.847 -9.41,-5.789 -14.99,-5.789 -4.69,0 -9.32,2.211 -13.9,6.633 -4.58,4.398 -9.44,10.797 -14.57,19.168"
         style="fill:#231f20;fill-opacity:1;fill-rule:nonzero;stroke:none"
         id="path28" /><path
         d="m 1254.32,402.391 c 0,-18.2 4.15,-32.18 12.47,-41.95 8.32,-9.769 19.23,-14.652 32.74,-14.652 11.5,0 21.4,5 29.72,14.992 8.32,9.989 12.48,24.301 12.48,42.949 0,12.059 -1.73,22.442 -5.19,31.149 -3.46,8.711 -8.38,15.43 -14.74,20.172 -6.37,4.75 -13.79,7.121 -22.27,7.121 -8.71,0 -16.47,-2.371 -23.28,-7.121 -6.81,-4.742 -12.17,-11.61 -16.07,-20.59 -3.92,-8.992 -5.86,-19.68 -5.86,-32.07 z m -2.18,135.808 v -69.84 c 8.59,8.942 17.36,15.782 26.29,20.52 8.93,4.75 19.98,7.121 33.16,7.121 15.18,0 28.49,-3.602 39.93,-10.801 11.44,-7.207 20.32,-17.648 26.63,-31.32 6.3,-13.668 9.46,-29.891 9.46,-48.641 0,-13.847 -1.76,-26.539 -5.28,-38.097 -3.51,-11.551 -8.62,-21.582 -15.32,-30.059 -6.7,-8.48 -14.82,-15.043 -24.36,-19.672 -9.55,-4.629 -20.07,-6.961 -31.57,-6.961 -7.03,0 -13.64,0.84 -19.84,2.52 -6.2,1.672 -11.47,3.883 -15.82,6.613 -4.36,2.738 -8.07,5.547 -11.14,8.457 -3.07,2.902 -7.12,7.262 -12.14,13.063 v -4.524 c 0,-8.598 -2.07,-15.098 -6.2,-19.496 -4.13,-4.422 -9.38,-6.633 -15.74,-6.633 -6.47,0 -11.64,2.211 -15.49,6.633 -3.85,4.398 -5.77,10.898 -5.77,19.496 v 199.613 c 0,9.258 1.86,16.27 5.61,21.008 3.73,4.75 8.95,7.121 15.65,7.121 7.04,0 12.45,-2.261 16.25,-6.789 3.79,-4.519 5.69,-10.961 5.69,-19.332"
         style="fill:#231f20;fill-opacity:1;fill-rule:nonzero;stroke:none"
         id="path30" /><path
         d="M 1419.77,338.262 V 536.52 c 0,9.16 2.03,16.082 6.1,20.769 4.08,4.691 9.58,7.031 16.5,7.031 6.92,0 12.5,-2.32 16.75,-6.949 4.24,-4.633 6.36,-11.582 6.36,-20.851 V 338.262 c 0,-9.27 -2.15,-16.223 -6.45,-20.852 -4.3,-4.629 -9.85,-6.961 -16.66,-6.961 -6.7,0 -12.14,2.41 -16.33,7.211 -4.18,4.801 -6.27,11.66 -6.27,20.602"
         style="fill:#231f20;fill-opacity:1;fill-rule:nonzero;stroke:none"
         id="path32" /><path
         d="m 1550.88,418.129 h 82.89 c -1.11,15.621 -5.33,27.32 -12.64,35.09 -7.31,7.75 -16.94,11.633 -28.88,11.633 -11.39,0 -20.75,-3.942 -28.06,-11.813 -7.31,-7.867 -11.74,-19.5 -13.31,-34.91 z m 89.42,-25.957 h -89.42 c 0.11,-10.383 2.21,-19.531 6.28,-27.461 4.08,-7.93 9.49,-13.891 16.24,-17.922 6.76,-4.008 14.21,-6.019 22.36,-6.019 5.47,0 10.47,0.64 14.99,1.921 4.52,1.278 8.9,3.289 13.14,6.039 4.24,2.719 8.15,5.661 11.73,8.782 3.56,3.129 8.2,7.367 13.9,12.726 2.34,2.012 5.69,3.024 10.04,3.024 4.69,0 8.48,-1.293 11.39,-3.864 2.9,-2.566 4.35,-6.187 4.35,-10.878 0,-4.129 -1.62,-8.961 -4.86,-14.489 -3.23,-5.519 -8.12,-10.832 -14.64,-15.91 -6.54,-5.082 -14.74,-9.289 -24.62,-12.641 -9.88,-3.351 -21.24,-5.031 -34.08,-5.031 -29.36,0 -52.19,8.383 -68.49,25.121 -16.3,16.75 -24.44,39.461 -24.44,68.16 0,13.5 2,26.04 6.02,37.59 4.02,11.559 9.88,21.469 17.58,29.731 7.71,8.258 17.2,14.59 28.47,19 11.27,4.41 23.78,6.609 37.51,6.609 17.86,0 33.18,-3.762 45.97,-11.289 12.78,-7.539 22.36,-17.281 28.72,-29.223 6.36,-11.957 9.54,-24.117 9.54,-36.519 0,-11.488 -3.29,-18.938 -9.88,-22.348 -6.59,-3.41 -15.85,-5.109 -27.8,-5.109"
         style="fill:#231f20;fill-opacity:1;fill-rule:nonzero;stroke:none"
         id="path34" /><path
         d="m 1754.67,418.129 h 82.89 c -1.11,15.621 -5.33,27.32 -12.64,35.09 -7.31,7.75 -16.94,11.633 -28.88,11.633 -11.39,0 -20.75,-3.942 -28.06,-11.813 -7.31,-7.867 -11.74,-19.5 -13.31,-34.91 z m 89.42,-25.957 h -89.42 c 0.11,-10.383 2.21,-19.531 6.28,-27.461 4.07,-7.93 9.49,-13.891 16.24,-17.922 6.76,-4.008 14.21,-6.019 22.36,-6.019 5.47,0 10.46,0.64 14.99,1.921 4.52,1.278 8.9,3.289 13.14,6.039 4.24,2.719 8.15,5.661 11.72,8.782 3.57,3.129 8.21,7.367 13.91,12.726 2.34,2.012 5.69,3.024 10.04,3.024 4.69,0 8.48,-1.293 11.39,-3.864 2.9,-2.566 4.35,-6.187 4.35,-10.878 0,-4.129 -1.62,-8.961 -4.86,-14.489 -3.23,-5.519 -8.12,-10.832 -14.65,-15.91 -6.53,-5.082 -14.73,-9.289 -24.61,-12.641 -9.88,-3.351 -21.24,-5.031 -34.08,-5.031 -29.36,0 -52.19,8.383 -68.49,25.121 -16.3,16.75 -24.45,39.461 -24.45,68.16 0,13.5 2.01,26.04 6.03,37.59 4.02,11.559 9.88,21.469 17.58,29.731 7.71,8.258 17.19,14.59 28.47,19 11.27,4.41 23.78,6.609 37.51,6.609 17.86,0 33.18,-3.762 45.97,-11.289 12.78,-7.539 22.35,-17.281 28.72,-29.223 6.36,-11.957 9.54,-24.117 9.54,-36.519 0,-11.488 -3.29,-18.938 -9.88,-22.348 -6.59,-3.41 -15.85,-5.109 -27.8,-5.109"
         style="fill:#231f20;fill-opacity:1;fill-rule:nonzero;stroke:none"
         id="path36" /><path
         d="M 1920.29,338.262 V 536.52 c 0,9.16 2.03,16.082 6.11,20.769 4.07,4.691 9.58,7.031 16.49,7.031 6.91,0 12.5,-2.32 16.74,-6.949 4.26,-4.633 6.37,-11.582 6.37,-20.851 V 338.262 c 0,-9.27 -2.15,-16.223 -6.45,-20.852 -4.3,-4.629 -9.84,-6.961 -16.66,-6.961 -6.7,0 -12.13,2.41 -16.33,7.211 -4.18,4.801 -6.27,11.66 -6.27,20.602"
         style="fill:#231f20;fill-opacity:1;fill-rule:nonzero;stroke:none"
         id="path38" /><path
         d="m 2051.4,418.129 h 82.89 c -1.12,15.621 -5.33,27.32 -12.64,35.09 -7.31,7.75 -16.94,11.633 -28.89,11.633 -11.38,0 -20.74,-3.942 -28.04,-11.813 -7.32,-7.867 -11.76,-19.5 -13.32,-34.91 z m 89.42,-25.957 h -89.42 c 0.11,-10.383 2.2,-19.531 6.28,-27.461 4.08,-7.93 9.49,-13.891 16.25,-17.922 6.74,-4.008 14.2,-6.019 22.35,-6.019 5.47,0 10.47,0.64 14.99,1.921 4.52,1.278 8.9,3.289 13.14,6.039 4.24,2.719 8.15,5.661 11.72,8.782 3.58,3.129 8.21,7.367 13.9,12.726 2.34,2.012 5.69,3.024 10.05,3.024 4.69,0 8.48,-1.293 11.38,-3.864 2.91,-2.566 4.36,-6.187 4.36,-10.878 0,-4.129 -1.62,-8.961 -4.85,-14.489 -3.25,-5.519 -8.13,-10.832 -14.66,-15.91 -6.52,-5.082 -14.74,-9.289 -24.61,-12.641 -9.88,-3.351 -21.24,-5.031 -34.08,-5.031 -29.37,0 -52.19,8.383 -68.49,25.121 -16.3,16.75 -24.45,39.461 -24.45,68.16 0,13.5 2.01,26.04 6.03,37.59 4.02,11.559 9.88,21.469 17.58,29.731 7.71,8.258 17.19,14.59 28.47,19 11.28,4.41 23.78,6.609 37.51,6.609 17.86,0 33.18,-3.762 45.96,-11.289 12.79,-7.539 22.36,-17.281 28.73,-29.223 6.36,-11.957 9.54,-24.117 9.54,-36.519 0,-11.488 -3.29,-18.938 -9.88,-22.348 -6.59,-3.41 -15.86,-5.109 -27.8,-5.109"
         style="fill:#231f20;fill-opacity:1;fill-rule:nonzero;stroke:none"
         id="path40" /><path
         d="m 2380.96,367.059 c 0,-5.7 -1.7,-11.778 -5.11,-18.258 -3.41,-6.469 -8.59,-12.641 -15.58,-18.5 -6.97,-5.86 -15.76,-10.582 -26.36,-14.153 -10.61,-3.566 -22.56,-5.347 -35.84,-5.347 -28.25,0 -50.3,8.23 -66.15,24.691 -15.85,16.469 -23.78,38.539 -23.78,66.227 0,18.75 3.63,35.34 10.89,49.73 7.26,14.403 17.75,25.539 31.48,33.41 13.73,7.871 30.14,11.801 49.24,11.801 11.82,0 22.68,-1.719 32.56,-5.18 9.89,-3.468 18.26,-7.929 25.12,-13.398 6.87,-5.473 12.11,-11.312 15.74,-17.5 3.63,-6.191 5.44,-11.973 5.44,-17.332 0,-5.469 -2.04,-10.109 -6.11,-13.898 -4.07,-3.801 -9.01,-5.692 -14.81,-5.692 -3.8,0 -6.96,0.969 -9.47,2.93 -2.51,1.949 -5.33,5.101 -8.45,9.461 -5.59,8.488 -11.42,14.84 -17.5,19.09 -6.09,4.238 -13.82,6.359 -23.2,6.359 -13.5,0 -24.39,-5.27 -32.65,-15.82 -8.27,-10.551 -12.4,-24.981 -12.4,-43.289 0,-8.602 1.07,-16.5 3.19,-23.692 2.12,-7.199 5.19,-13.34 9.21,-18.418 4.02,-5.09 8.87,-8.941 14.57,-11.551 5.69,-2.628 11.94,-3.941 18.76,-3.941 9.15,0 16.99,2.121 23.52,6.359 6.53,4.243 12.31,10.723 17.34,19.422 2.78,5.141 5.8,9.149 9.04,12.059 3.23,2.902 7.2,4.359 11.88,4.359 5.59,0 10.22,-2.129 13.9,-6.367 3.69,-4.242 5.53,-8.762 5.53,-13.562"
         style="fill:#231f20;fill-opacity:1;fill-rule:nonzero;stroke:none"
         id="path42" /><path
         d="m 2423.32,492.309 h 5.02 v 27.472 c 0,7.36 0.2,13.141 0.59,17.321 0.39,4.187 1.48,7.796 3.27,10.808 1.78,3.121 4.35,5.66 7.7,7.621 3.35,1.949 7.08,2.93 11.21,2.93 5.81,0 11.06,-2.18 15.75,-6.531 3.12,-2.899 5.1,-6.45 5.94,-10.641 0.84,-4.187 1.26,-10.117 1.26,-17.828 v -31.152 h 16.74 c 6.48,0 11.42,-1.528 14.83,-4.598 3.4,-3.082 5.1,-7.012 5.1,-11.813 0,-6.136 -2.43,-10.437 -7.28,-12.886 -4.86,-2.461 -11.81,-3.692 -20.85,-3.692 h -8.54 v -84.058 c 0,-7.141 0.25,-12.641 0.75,-16.5 0.5,-3.84 1.84,-6.973 4.02,-9.371 2.18,-2.403 5.72,-3.602 10.63,-3.602 2.69,0 6.31,0.473 10.89,1.422 4.57,0.949 8.15,1.43 10.71,1.43 3.7,0 7.02,-1.493 9.98,-4.442 2.94,-2.961 4.43,-6.617 4.43,-10.969 0,-7.371 -4.02,-13.011 -12.06,-16.921 -8.04,-3.899 -19.59,-5.86 -34.66,-5.86 -14.3,0 -25.12,2.41 -32.49,7.211 -7.36,4.801 -12.2,11.442 -14.48,19.922 -2.29,8.488 -3.44,19.816 -3.44,34 v 87.738 h -6.03 c -6.59,0 -11.61,1.559 -15.06,4.7 -3.47,3.109 -5.2,7.082 -5.2,11.878 0,4.801 1.82,8.731 5.45,11.813 3.62,3.07 8.9,4.598 15.82,4.598"
         style="fill:#231f20;fill-opacity:1;fill-rule:nonzero;stroke:none"
         id="path44" /><path
         d="m 2587.6,376.43 v -38.168 c 0,-9.27 -2.18,-16.223 -6.54,-20.852 -4.35,-4.629 -9.88,-6.961 -16.58,-6.961 -6.58,0 -12,2.352 -16.24,7.051 -4.24,4.68 -6.36,11.602 -6.36,20.762 V 465.52 c 0,20.539 7.43,30.812 22.27,30.812 7.59,0 13.07,-2.402 16.42,-7.191 3.35,-4.809 5.18,-11.903 5.51,-21.27 5.47,9.367 11.09,16.461 16.84,21.27 5.74,4.789 13.42,7.191 23.03,7.191 9.6,0 18.91,-2.402 27.96,-7.191 9.04,-4.809 13.56,-11.18 13.56,-19.102 0,-5.578 -1.92,-10.18 -5.78,-13.809 -3.85,-3.628 -8.01,-5.441 -12.47,-5.441 -1.67,0 -5.72,1.02 -12.14,3.09 -6.43,2.07 -12.09,3.101 -17,3.101 -6.7,0 -12.17,-1.761 -16.41,-5.281 -4.25,-3.508 -7.54,-8.73 -9.88,-15.648 -2.34,-6.922 -3.97,-15.16 -4.85,-24.699 -0.9,-9.551 -1.34,-21.192 -1.34,-34.922"
         style="fill:#231f20;fill-opacity:1;fill-rule:nonzero;stroke:none"
         id="path46" /><path
         d="m 2804.62,403.391 c 0,18.648 -4.1,33.16 -12.31,43.539 -8.2,10.39 -19.23,15.57 -33.07,15.57 -8.94,0 -16.81,-2.309 -23.61,-6.941 -6.81,-4.637 -12.06,-11.469 -15.75,-20.52 -3.68,-9.039 -5.51,-19.59 -5.51,-31.648 0,-11.942 1.8,-22.379 5.43,-31.309 3.63,-8.934 8.82,-15.773 15.58,-20.512 6.75,-4.75 14.71,-7.121 23.86,-7.121 13.84,0 24.87,5.211 33.07,15.66 8.21,10.43 12.31,24.871 12.31,43.282 z m 45.88,0 c 0,-13.621 -2.12,-26.18 -6.36,-37.672 -4.25,-11.508 -10.38,-21.379 -18.42,-29.637 -8.03,-8.262 -17.64,-14.602 -28.81,-19 -11.16,-4.422 -23.72,-6.633 -37.67,-6.633 -13.84,0 -26.29,2.242 -37.35,6.699 -11.04,4.473 -20.62,10.864 -28.72,19.184 -8.09,8.309 -14.22,18.137 -18.41,29.477 -4.18,11.32 -6.28,23.851 -6.28,37.582 0,13.839 2.12,26.519 6.36,38.019 4.24,11.5 10.33,21.32 18.26,29.469 7.92,8.152 17.52,14.43 28.79,18.84 11.28,4.41 23.73,6.613 37.35,6.613 13.84,0 26.4,-2.23 37.67,-6.703 11.28,-4.457 20.94,-10.828 28.98,-19.09 8.04,-8.258 14.15,-18.078 18.33,-29.469 4.19,-11.39 6.28,-23.949 6.28,-37.679"
         style="fill:#231f20;fill-opacity:1;fill-rule:nonzero;stroke:none"
         id="path48" /><path
         d="m 2928.03,471.051 v -5.531 c 8.03,10.609 16.83,18.39 26.37,23.359 9.55,4.961 20.52,7.453 32.91,7.453 12.06,0 22.83,-2.621 32.32,-7.871 9.49,-5.242 16.58,-12.672 21.27,-22.27 3.01,-5.582 4.96,-11.609 5.86,-18.082 0.89,-6.48 1.34,-14.738 1.34,-24.777 v -85.07 c 0,-9.16 -2.09,-16.082 -6.28,-20.762 -4.19,-4.699 -9.63,-7.051 -16.33,-7.051 -6.81,0 -12.34,2.41 -16.57,7.211 -4.25,4.801 -6.37,11.66 -6.37,20.602 v 76.187 c 0,15.071 -2.09,26.59 -6.28,34.582 -4.19,7.981 -12.53,11.969 -25.04,11.969 -8.14,0 -15.57,-2.43 -22.27,-7.281 -6.69,-4.86 -11.61,-11.539 -14.73,-20.008 -2.24,-6.82 -3.35,-19.551 -3.35,-38.191 v -57.258 c 0,-9.27 -2.15,-16.223 -6.45,-20.852 -4.3,-4.629 -9.85,-6.961 -16.66,-6.961 -6.59,0 -12,2.41 -16.25,7.211 -4.23,4.801 -6.35,11.66 -6.35,20.602 v 132.117 c 0,8.711 1.89,15.211 5.69,19.512 3.79,4.289 8.98,6.441 15.57,6.441 4.02,0 7.64,-0.941 10.88,-2.852 3.24,-1.89 5.83,-4.742 7.79,-8.531 1.95,-3.801 2.93,-8.429 2.93,-13.898"
         style="fill:#231f20;fill-opacity:1;fill-rule:nonzero;stroke:none"
         id="path50" /><path
         d="M 3139.37,470.379 V 338.262 c 0,-9.16 -2.18,-16.082 -6.54,-20.762 -4.35,-4.699 -9.87,-7.051 -16.57,-7.051 -6.7,0 -12.14,2.41 -16.33,7.211 -4.19,4.801 -6.28,11.66 -6.28,20.602 v 130.777 c 0,9.043 2.09,15.852 6.28,20.43 4.19,4.582 9.63,6.863 16.33,6.863 6.7,0 12.22,-2.281 16.57,-6.863 4.36,-4.578 6.54,-10.949 6.54,-19.09 z m -22.61,47.223 c -6.36,0 -11.81,1.957 -16.33,5.859 -4.52,3.91 -6.78,9.437 -6.78,16.57 0,6.481 2.32,11.809 6.95,16 4.63,4.188 10.02,6.278 16.16,6.278 5.92,0 11.16,-1.899 15.74,-5.688 4.58,-3.801 6.87,-9.332 6.87,-16.59 0,-7.031 -2.24,-12.531 -6.7,-16.492 -4.47,-3.957 -9.77,-5.937 -15.91,-5.937"
         style="fill:#231f20;fill-opacity:1;fill-rule:nonzero;stroke:none"
         id="path52" /><path
         d="m 3350.53,367.059 c 0,-5.7 -1.7,-11.778 -5.11,-18.258 -3.41,-6.469 -8.59,-12.641 -15.58,-18.5 -6.97,-5.86 -15.76,-10.582 -26.36,-14.153 -10.61,-3.566 -22.56,-5.347 -35.84,-5.347 -28.25,0 -50.3,8.23 -66.15,24.691 -15.85,16.469 -23.78,38.539 -23.78,66.227 0,18.75 3.63,35.34 10.89,49.73 7.26,14.403 17.75,25.539 31.48,33.41 13.73,7.871 30.14,11.801 49.24,11.801 11.82,0 22.68,-1.719 32.56,-5.18 9.89,-3.468 18.26,-7.929 25.12,-13.398 6.87,-5.473 12.11,-11.312 15.74,-17.5 3.63,-6.191 5.44,-11.973 5.44,-17.332 0,-5.469 -2.04,-10.109 -6.11,-13.898 -4.07,-3.801 -9.01,-5.692 -14.81,-5.692 -3.8,0 -6.96,0.969 -9.47,2.93 -2.51,1.949 -5.33,5.101 -8.45,9.461 -5.59,8.488 -11.42,14.84 -17.5,19.09 -6.09,4.238 -13.82,6.359 -23.2,6.359 -13.5,0 -24.39,-5.27 -32.65,-15.82 -8.27,-10.551 -12.4,-24.981 -12.4,-43.289 0,-8.602 1.07,-16.5 3.19,-23.692 2.12,-7.199 5.19,-13.34 9.21,-18.418 4.02,-5.09 8.87,-8.941 14.57,-11.551 5.69,-2.628 11.94,-3.941 18.76,-3.941 9.15,0 16.99,2.121 23.52,6.359 6.54,4.243 12.31,10.723 17.34,19.422 2.78,5.141 5.8,9.149 9.04,12.059 3.23,2.902 7.2,4.359 11.88,4.359 5.59,0 10.22,-2.129 13.9,-6.367 3.69,-4.242 5.53,-8.762 5.53,-13.562"
         style="fill:#231f20;fill-opacity:1;fill-rule:nonzero;stroke:none"
         id="path54" /><path
         d="m 3537.57,370.238 c 0,-12.617 -3.07,-23.418 -9.21,-32.398 -6.14,-8.988 -15.21,-15.801 -27.21,-20.43 -12,-4.629 -26.6,-6.961 -43.79,-6.961 -16.41,0 -30.48,2.52 -42.19,7.543 -11.73,5.02 -20.38,11.297 -25.96,18.84 -5.59,7.539 -8.38,15.098 -8.38,22.699 0,5.02 1.79,9.309 5.36,12.891 3.58,3.566 8.1,5.359 13.57,5.359 4.79,0 8.48,-1.172 11.05,-3.531 2.57,-2.34 5.02,-5.629 7.36,-9.871 4.69,-8.149 10.31,-14.238 16.84,-18.25 6.52,-4.027 15.43,-6.039 26.71,-6.039 9.15,0 16.66,2.039 22.52,6.121 5.86,4.07 8.79,8.738 8.79,13.98 0,8.039 -3.04,13.899 -9.12,17.59 -6.1,3.68 -16.11,7.199 -30.06,10.551 -15.74,3.898 -28.56,8 -38.44,12.297 -9.87,4.301 -17.77,9.961 -23.69,17 -5.92,7.031 -8.88,15.691 -8.88,25.961 0,9.148 2.74,17.801 8.2,25.949 5.47,8.152 13.54,14.652 24.2,19.512 10.67,4.847 23.53,7.281 38.61,7.281 11.82,0 22.46,-1.23 31.89,-3.684 9.44,-2.457 17.31,-5.75 23.62,-9.878 6.3,-4.129 11.1,-8.711 14.4,-13.731 3.29,-5.019 4.94,-9.937 4.94,-14.738 0,-5.242 -1.76,-9.539 -5.28,-12.891 -3.52,-3.351 -8.51,-5.031 -14.98,-5.031 -4.69,0 -8.68,1.34 -11.98,4.031 -3.3,2.672 -7.06,6.692 -11.3,12.051 -3.46,4.461 -7.53,8.031 -12.23,10.719 -4.69,2.672 -11.05,4.011 -19.08,4.011 -8.26,0 -15.13,-1.761 -20.6,-5.269 -5.48,-3.524 -8.21,-7.902 -8.21,-13.152 0,-4.801 2.01,-8.739 6.03,-11.801 4.02,-3.071 9.44,-5.61 16.24,-7.617 6.81,-2.012 16.19,-4.461 28.14,-7.364 14.17,-3.468 25.75,-7.597 34.75,-12.398 8.98,-4.801 15.79,-10.461 20.43,-17 4.62,-6.531 6.94,-13.981 6.94,-22.352"
         style="fill:#231f20;fill-opacity:1;fill-rule:nonzero;stroke:none"
         id="path56" /><path
         style="fill:#ffffff;stroke-width:0.408775"
         d="m 50.810635,287.64105 c -4.253244,-1.49292 -7.189039,-4.22458 -9.278042,-8.63292 l -1.26828,-2.6764 v -50.0749 -50.07491 l 1.297613,-2.73908 c 1.650893,-3.48481 4.332966,-6.16688 7.817773,-7.81777 l 2.739082,-1.29762 57.024079,-0.20439 57.02408,-0.20438 3.88336,-1.15904 c 15.1893,-4.53341 25.8222,-15.4859 29.50862,-30.39552 1.05073,-4.24968 1.25553,-13.08038 0.39634,-17.08964 -2.57337,-12.00813 -9.46353,-21.755266 -19.53238,-27.631419 -3.80328,-2.219582 -6.40514,-3.283475 -11.39452,-4.659178 l -3.67897,-1.014387 -54.77582,-0.01508 C 75.938995,81.944892 55.152722,81.790563 54.043534,81.534707 47.630897,80.05551 42.824315,74.922506 41.675761,68.327018 c -0.681189,-3.911676 -0.31177,-14.583183 0.589387,-17.025786 1.666644,-4.517471 5.441898,-8.294522 9.83329,-9.837972 2.180991,-0.766557 3.956066,-0.790172 59.395392,-0.790172 57.4174,0 60.12425,0.05976 67.14074,1.482352 29.08027,5.896011 52.94022,27.367826 61.88848,55.694068 2.35453,7.453412 3.17039,12.716342 3.39825,21.921492 0.23253,9.39351 -0.25667,14.4315 -2.12356,21.86945 -7.12506,28.38715 -28.98794,51.02776 -56.82213,58.84346 -11.33039,3.18151 -13.36091,3.28956 -61.82368,3.28996 l -41.788692,3.4e-4 -0.110725,36.48315 -0.110724,36.48315 -1.09554,2.3374 c -1.528764,3.26171 -4.400341,6.18744 -7.639286,7.78334 l -2.689047,1.32495 -8.390793,0.10049 c -7.245392,0.0868 -8.680964,-0.001 -10.516488,-0.64564 z"
         id="path328"
         transform="matrix(7.5000002,0,0,-7.5000002,0,2906.0001)" /><path
         style="fill:#ffffff;stroke-width:0.408775"
         d="m 283.79215,81.327724 c -4.83543,-1.302069 -8.33132,-4.205183 -10.45034,-8.678327 l -1.30221,-2.748914 v -8.788657 c 0,-8.678075 0.0138,-8.818068 1.09554,-11.126058 1.52979,-3.263901 4.40029,-6.18765 7.6416,-7.783339 l 2.69136,-1.324954 h 88.50833 88.50833 l 2.3374,1.09554 c 3.26183,1.528816 6.18745,4.400339 7.78334,7.639402 l 1.32495,2.689164 0.13312,8.103665 c 0.1195,7.275313 0.0484,8.354439 -0.69538,10.556953 -1.84904,5.475312 -6.18943,9.343863 -11.82329,10.537999 -1.56552,0.331823 -25.93582,0.45168 -87.88657,0.432239 -72.51916,-0.02277 -86.05085,-0.115888 -87.86618,-0.604713 z"
         id="path330"
         transform="matrix(7.5000002,0,0,-7.5000002,0,2906.0001)" /><path
         style="fill:#ffffff;stroke-width:0.408775"
         d="m 284.22274,184.76387 c -4.68348,-1.01794 -8.93411,-4.47994 -11.03877,-8.99073 -1.14178,-2.44708 -1.14437,-2.47258 -1.14437,-11.2413 0,-8.69083 0.0123,-8.81483 1.10201,-11.14019 2.30331,-4.91495 6.91434,-8.41514 12.21985,-9.27598 3.66767,-0.5951 169.6119,-0.58982 173.28135,0.006 1.46002,0.23687 3.44271,0.7793 4.40598,1.2054 2.69587,1.19251 6.34179,4.91822 7.70875,7.87745 l 1.17291,2.53915 v 8.78866 8.78866 l -1.26497,2.65703 c -2.22499,4.67353 -6.07875,7.73909 -11.05404,8.7932 -4.03379,0.85463 -171.45516,0.84808 -175.3887,-0.007 z"
         id="path332"
         transform="matrix(7.5000002,0,0,-7.5000002,0,2906.0001)" /><path
         style="fill:#ffffff;stroke-width:0.408775"
         d="m 282.01062,287.42973 c -4.14151,-1.70634 -7.04253,-4.44364 -8.89383,-8.3919 -1.0591,-2.25874 -1.07719,-2.44491 -1.07719,-11.08598 v -8.78866 l 1.26614,-2.65703 c 2.15584,-4.52408 5.76236,-7.51497 10.57202,-8.7674 2.1644,-0.56361 11.99862,-0.63442 88.10727,-0.63442 94.58461,0 88.13544,-0.17888 92.73667,2.57215 2.63393,1.5748 4.54335,3.79517 6.07353,7.06261 1.13087,2.41479 1.13522,2.45786 1.13522,11.22207 v 8.79798 l -1.32495,2.69064 c -1.59575,3.24056 -4.52012,6.1114 -7.78334,7.64087 l -2.3374,1.09554 -88.09096,0.094 -88.09096,0.094 z"
         id="path334"
         transform="matrix(7.5000002,0,0,-7.5000002,0,2906.0001)" /><path
         style="fill:#ffffff;stroke-width:0.408775"
         d="m 44.121827,354.2647 -0.99609,-0.80648 v -15.11781 c 0,-14.29276 0.0425,-15.16477 0.77871,-15.97843 1.528072,-1.68883 4.043125,-0.68368 4.509484,1.80222 l 0.273247,1.45654 1.875123,-1.65055 c 2.146993,-1.88986 4.460815,-2.65813 6.969824,-2.31423 5.617877,0.77001 8.919764,5.38347 8.861906,12.38201 -0.02393,2.8951 -0.200705,3.69081 -1.329157,5.98303 -3.129645,6.35721 -10.104531,7.75266 -15.09216,3.01945 l -1.328518,-1.26074 -0.0098,4.47451 c -0.0095,4.38167 -0.407594,7.31208 -1.082602,7.97016 -0.833007,0.81211 -2.453245,0.83116 -3.430015,0.0403 z m 14.180754,-14.00319 c 1.800323,-1.68178 2.353057,-3.19212 2.377653,-6.49692 0.02728,-3.66481 -0.877649,-5.83166 -3.042994,-7.28646 -1.129544,-0.75889 -1.806245,-0.92007 -3.214701,-0.7657 -3.694784,0.40497 -5.546361,3.08832 -5.556769,8.05301 -0.0074,3.55176 0.784872,5.32726 3.070725,6.88116 1.843449,1.25316 4.804072,1.07407 6.366086,-0.38509 z"
         id="path336"
         transform="matrix(7.5000002,0,0,-7.5000002,0,2906.0001)" /><path
         style="fill:#ffffff;stroke-width:0.408775"
         d="m 71.718533,329.06368 c -1.55e-4,-7.41926 0.05509,-10.51209 0.122772,-6.87294 0.06768,3.63914 0.06781,9.70945 2.82e-4,13.48956 -0.06753,3.78012 -0.122899,0.80264 -0.123054,-6.61662 z"
         id="path338"
         transform="matrix(7.5000002,0,0,-7.5000002,0,2906.0001)" /><path
         style="fill:#ffffff;stroke-width:0.408775"
         d="m 88.345546,345.63009 c -5.794302,-1.41792 -7.275194,-8.76893 -2.347462,-11.65258 0.926255,-0.54203 3.891484,-1.4761 6.589398,-2.0757 2.697913,-0.59961 5.323344,-1.18381 5.834291,-1.29823 0.823173,-0.18434 0.89853,-0.37702 0.661551,-1.69152 -0.147094,-0.81591 -0.430182,-1.79891 -0.629083,-2.18443 -0.536584,-1.04003 -3.210733,-1.70129 -5.494855,-1.35876 -1.926114,0.28883 -3.02987,1.10328 -5.171007,3.81562 -0.917979,1.16287 -1.744543,1.13942 -2.968164,-0.0842 -0.853458,-0.85346 -0.934065,-1.16802 -0.602316,-2.35045 0.891205,-3.17648 5.002265,-5.2485 10.413457,-5.2485 5.34692,0 8.453774,1.58232 9.550584,4.86411 0.25542,0.76423 0.4644,3.76307 0.4644,6.66409 0,3.34948 0.2371,6.31704 0.64964,8.13084 0.53638,2.35827 0.55667,2.96831 0.11639,3.49881 -1.59808,1.92557 -3.57791,1.21699 -5.748568,-2.05739 -0.182381,-0.27511 -0.542512,-0.18984 -1.021937,0.24199 -2.365968,2.13108 -7.403318,3.49425 -10.296319,2.7863 z m 6.558762,-3.70222 c 2.271596,-0.63093 3.89536,-2.73779 4.240784,-5.50247 0.157325,-1.25918 0.179902,-2.39557 0.05017,-2.5253 -0.299907,-0.29991 -7.47966,1.43732 -8.908699,2.15557 -3.127004,1.57166 -1.454539,6.12087 2.300919,6.25864 0.449652,0.0165 1.492224,-0.1574 2.316826,-0.38644 z"
         id="path340"
         transform="matrix(7.5000002,0,0,-7.5000002,0,2906.0001)" /><path
         style="fill:#ffffff;stroke-width:0.408775"
         d="m 72.947713,345.02447 -1.003356,-1.00335 v -14.93886 c 0,-14.39383 0.02983,-14.96869 0.817549,-15.75641 1.069014,-1.06902 2.93428,-1.04868 3.922199,0.0428 0.735813,0.81291 0.778711,1.68182 0.778711,15.77307 v 14.91277 l -1.146926,0.98669 c -1.446128,1.24409 -2.110707,1.2408 -3.368177,-0.0167 z"
         id="path342"
         transform="matrix(7.5000002,0,0,-7.5000002,0,2906.0001)" /><path
         style="fill:#ffffff;stroke-width:0.408775"
         d="m 110.53789,354.63549 c -0.6941,-0.16594 -1.45368,-0.42017 -1.68795,-0.56495 -0.73836,-0.45633 -0.86597,-1.82545 -0.25188,-2.70219 0.47569,-0.67914 1.03103,-0.844 2.84311,-0.844 2.91857,0 3.46731,-0.33449 4.63352,-2.82441 l 0.96874,-2.06828 -4.18475,-10.62647 c -2.80456,-7.1217 -4.0972,-10.90233 -3.91928,-11.46288 0.38772,-1.22162 2.05089,-2.1789 3.25886,-1.87572 1.32358,0.3322 1.65954,1.04879 4.75965,10.15226 1.43479,4.21326 2.72168,7.66229 2.85975,7.66453 0.28839,0.005 0.68847,-1.03474 3.85328,-10.01093 1.2683,-3.59722 2.59371,-6.8623 2.94536,-7.25575 1.52181,-1.7027 4.45774,0.004 3.95381,2.29824 -0.36281,1.65185 -8.83729,23.76894 -9.9203,25.89044 -1.1892,2.32954 -2.70314,3.64561 -4.80151,4.17398 -1.95023,0.49108 -3.4258,0.50667 -5.31041,0.0561 z"
         id="path344"
         transform="matrix(7.5000002,0,0,-7.5000002,0,2906.0001)" /><path
         style="fill:#ffffff;stroke-width:0.408775"
         d="m 138.63317,345.42983 c -5.63721,-1.79743 -6.66749,-8.22301 -1.8401,-11.47619 0.69563,-0.46878 2.34679,-1.08543 3.66924,-1.37032 1.32246,-0.2849 4.03087,-0.89074 6.0187,-1.34631 l 3.61423,-0.82832 -0.27812,-1.48253 c -0.42254,-2.25231 -0.89208,-2.85622 -2.62419,-3.37517 -3.20268,-0.95955 -6.74252,0.36281 -8.18468,3.05751 -0.73856,1.38001 -1.86806,1.70261 -3.11066,0.88843 -2.1323,-1.39714 -0.65482,-4.93087 2.80635,-6.712 3.82911,-1.97048 11.53117,-1.60838 14.23814,0.66938 2.07228,1.74371 2.4933,3.31192 2.43825,9.08194 -0.0325,3.40632 0.1804,6.18899 0.63814,8.34078 l 0.68692,3.22909 -1.11706,0.96085 c -0.61439,0.52847 -1.32229,0.96086 -1.57311,0.96086 -0.25083,0 -1.23358,-0.81147 -2.18389,-1.80326 l -1.72783,-1.80327 -1.49568,1.01635 c -3.24533,2.20526 -6.97204,2.94957 -9.97465,1.99218 z m 8.713,-4.29671 c 1.58318,-0.97846 2.27111,-2.37858 2.56601,-5.22247 0.15975,-1.54062 0.0815,-2.14606 -0.27752,-2.14606 -0.73404,0 -6.98891,1.59049 -8.31641,2.1147 -2.81269,1.11069 -2.4827,4.99734 0.52659,6.20224 1.05976,0.42432 4.13919,-0.10656 5.50133,-0.94841 z"
         id="path346"
         transform="matrix(7.5000002,0,0,-7.5000002,0,2906.0001)" /><path
         style="fill:#ffffff;stroke-width:0.408775"
         d="m 162.49477,345.04986 -1.02874,-1.02874 v -14.93886 c 0,-14.39383 0.0298,-14.96869 0.81755,-15.75641 0.44965,-0.44965 1.23143,-0.81473 1.73729,-0.81129 2.27092,0.0154 2.75923,1.35721 2.75923,7.58159 v 5.18894 l 1.32852,-1.07586 c 2.57203,-2.0829 3.64074,-2.48199 6.64259,-2.48057 4.43913,0.002 7.00201,1.65032 8.87088,5.70501 1.30179,2.82434 1.34118,9.29041 0.0734,12.05376 -1.89807,4.13728 -4.8702,6.25867 -8.77672,6.26448 -2.6603,0.004 -5.66849,-1.26077 -6.68356,-2.80997 -0.8332,-1.27161 -1.45515,-1.28239 -1.45515,-0.0252 0,1.17936 -1.09609,2.53404 -2.34365,2.89658 -0.66201,0.19237 -1.1957,-0.0175 -1.94168,-0.76345 z m 13.25921,-4.1218 c 0.64161,-0.33179 1.5982,-1.29752 2.12577,-2.14607 0.82109,-1.32067 0.9592,-2.07255 0.9592,-5.22179 0,-3.17351 -0.13492,-3.89603 -0.98206,-5.25878 -2.25549,-3.62829 -6.79974,-3.51005 -9.5847,0.2494 -1.23472,1.66676 -1.45424,7.70055 -0.35329,9.71029 1.59746,2.91609 5.06852,4.09759 7.83508,2.66695 z"
         id="path348"
         transform="matrix(7.5000002,0,0,-7.5000002,0,2906.0001)" /><path
         style="fill:#ffffff;stroke-width:0.408775"
         d="m 190.74855,345.18061 -1.07706,-0.84722 V 329.2384 c 0,-14.54997 0.0295,-15.12452 0.81755,-15.91255 1.82295,-1.82296 4.24744,-0.52032 4.70026,2.52538 0.14447,0.97171 0.20371,7.71525 0.13166,14.98563 l -0.13101,13.21889 -1.14693,0.98604 c -1.40184,1.20519 -1.91149,1.22667 -3.29447,0.13882 z"
         id="path350"
         transform="matrix(7.5000002,0,0,-7.5000002,0,2906.0001)" /><path
         style="fill:#ffffff;stroke-width:0.408775"
         d="m 209.59229,345.47006 c -4.66147,-1.03505 -7.72782,-4.39573 -8.58693,-9.4112 -0.75837,-4.42737 0.43682,-8.61464 3.26667,-11.44449 4.63704,-4.63704 14.02047,-3.8929 17.36645,1.37721 1.46378,2.30553 2.10357,4.63825 1.76586,6.43841 -0.41512,2.21276 -1.7786,2.56092 -10.02931,2.56092 h -6.98082 l 0.27754,1.53291 c 0.60528,3.34308 2.33864,5.20124 5.26066,5.63942 2.17281,0.32584 4.68258,-0.68081 7.06605,-2.83414 1.80848,-1.63385 2.57779,-1.80681 3.57976,-0.80484 0.90362,0.90362 0.48776,2.44893 -1.10443,4.10401 -2.53445,2.63455 -7.48368,3.8183 -11.8815,2.84179 z m 8.28465,-14.55862 c 0,-1.47786 -1.28036,-4.03731 -2.38511,-4.76786 -0.67404,-0.44573 -1.87316,-0.72221 -3.14471,-0.72506 -3.08286,-0.007 -4.68421,1.43673 -5.51698,4.97367 l -0.31279,1.32852 h 5.6798 c 5.38793,0 5.67979,-0.0416 5.67979,-0.80927 z"
         id="path352"
         transform="matrix(7.5000002,0,0,-7.5000002,0,2906.0001)" /><path
         style="fill:#ffffff;stroke-width:0.408775"
         d="m 237.29374,345.62755 c -0.8993,-0.19208 -2.13134,-0.54029 -2.73786,-0.77379 -1.64335,-0.63267 -4.35923,-3.24702 -5.33342,-5.13406 -1.19815,-2.32082 -1.45785,-7.46629 -0.53677,-10.63472 2.67977,-9.21807 16.87976,-10.36206 20.92004,-1.68537 1.25523,2.69568 1.30406,5.52967 0.11385,6.6082 -0.76737,0.69538 -1.66418,0.79236 -8.37988,0.90619 l -7.52054,0.12747 v 1.00979 c 0,1.59846 1.00388,3.5851 2.4091,4.76751 2.6598,2.23808 5.92145,1.84313 9.41655,-1.14023 2.25097,-1.9214 3.46669,-2.19963 4.23721,-0.96973 1.11698,1.78294 -1.52906,5.1458 -4.91491,6.24635 -2.56891,0.83502 -5.64853,1.10487 -7.67337,0.67239 z m 7.7587,-15.23536 c -0.70413,-3.37255 -3.14285,-5.41891 -6.03698,-5.0657 -2.14928,0.26231 -3.4963,1.25883 -4.40403,3.25809 -1.44919,3.19182 -1.53731,3.13613 4.96306,3.13613 h 5.75532 z"
         id="path354"
         transform="matrix(7.5000002,0,0,-7.5000002,0,2906.0001)" /><path
         style="fill:#ffffff;stroke-width:0.408775"
         d="m 258.06579,345.6162 c -0.49117,-0.19789 -1.089,-0.72599 -1.32852,-1.17354 -0.28506,-0.53263 -0.4355,-5.90662 -0.4355,-15.5565 0,-14.19773 0.0302,-14.77299 0.81755,-15.56031 1.06883,-1.06883 2.93421,-1.04866 3.9222,0.0424 0.72961,0.80574 0.78612,1.76455 0.89626,15.20731 0.12511,15.26883 0.0311,16.15638 -1.79951,16.99047 -0.55745,0.25399 -1.05088,0.45014 -1.0965,0.43589 -0.0456,-0.0143 -0.48482,-0.18783 -0.97598,-0.38572 z"
         id="path356"
         transform="matrix(7.5000002,0,0,-7.5000002,0,2906.0001)" /><path
         style="fill:#ffffff;stroke-width:0.408775"
         d="m 277.55806,345.76448 c -5.69436,-1.05941 -8.80706,-4.13588 -9.84043,-9.72588 -0.48611,-2.62958 0.0629,-6.47538 1.25904,-8.82007 2.93591,-5.75485 12.01845,-7.5785 17.37936,-3.48953 3.15541,2.40674 4.87243,7.89493 3.13972,10.03559 -0.8207,1.01392 -0.88677,1.02299 -8.42631,1.15659 l -7.59913,0.13466 v 1.21014 c 0,3.56094 3.50623,6.44681 7.16588,5.89801 1.61026,-0.24148 2.66065,-0.86376 6.0053,-3.55772 0.94565,-0.76168 1.26721,-0.82535 2.14606,-0.42492 2.65267,1.20864 -0.27655,5.55193 -4.6891,6.95275 -1.75825,0.55818 -5.16408,0.88644 -6.54039,0.63038 z m 6.88285,-15.78106 c -0.53364,-2.38819 -1.3721,-3.53632 -3.11403,-4.26414 -3.44342,-1.43875 -7.10438,0.70705 -7.72435,4.52748 l -0.23919,1.47395 h 5.73288 5.73288 z"
         id="path358"
         transform="matrix(7.5000002,0,0,-7.5000002,0,2906.0001)" /><path
         style="fill:#ffffff;stroke-width:0.408775"
         d="m 304.30282,345.58029 c -3.76942,-0.47825 -6.67596,-2.48796 -8.48489,-5.86684 -1.2658,-2.36439 -1.28468,-8.97295 -0.0334,-11.6763 2.41908,-5.22617 8.58262,-7.71275 14.70561,-5.93274 3.25002,0.9448 6.31025,3.87071 6.31025,6.03327 0,1.52149 -0.42715,2.07412 -1.96886,2.54724 -0.79318,0.24341 -1.29098,-0.0814 -3.06581,-2.00048 -2.45736,-2.65704 -4.25128,-3.3782 -6.73788,-2.70863 -2.92863,0.7886 -4.58426,3.64294 -4.56946,7.87784 0.01,2.80916 0.91756,5.31027 2.40908,6.63782 0.63499,0.56518 1.67241,0.84893 3.53811,0.96773 l 2.6397,0.16809 1.73149,-1.79691 c 0.95233,-0.9883 2.05161,-2.20556 2.44285,-2.70503 1.32268,-1.68853 3.98956,-0.68929 3.98956,1.49483 0,1.94464 -2.14223,4.59834 -4.79049,5.93424 -1.73314,0.87428 -5.52899,1.35408 -8.1159,1.02587 z"
         id="path360"
         transform="matrix(7.5000002,0,0,-7.5000002,0,2906.0001)" /><path
         style="fill:#ffffff;stroke-width:0.408775"
         d="m 328.45051,345.64819 c -3.93218,-0.94895 -4.29213,-1.94445 -4.29213,-11.87047 v -7.77985 h -1.16297 c -1.23797,0 -2.516,-1.08105 -2.516,-2.12821 0,-0.85885 0.84171,-1.49428 2.38941,-1.80382 l 1.28956,-0.25791 v -3.42349 c 0,-3.7991 0.66155,-5.05859 2.65704,-5.05859 2.00398,0 2.65703,1.25586 2.65703,5.10968 v 3.47459 h 1.41148 c 2.24791,0 3.49382,0.75586 3.49382,2.1196 0,1.34139 -1.13273,1.96815 -3.55699,1.96815 h -1.4599 l 0.19633,7.13692 c 0.23122,8.4056 0.313,8.60853 3.32553,8.25174 2.3698,-0.28067 3.5389,0.22363 3.5389,1.52652 0,1.28292 -1.0842,2.16728 -3.27623,2.67235 -2.06767,0.47641 -2.93302,0.48798 -4.69488,0.0628 z"
         id="path362"
         transform="matrix(7.5000002,0,0,-7.5000002,0,2906.0001)" /><path
         style="fill:#ffffff;stroke-width:0.408775"
         d="m 340.36011,345.18061 -1.07706,-0.84722 v -10.59847 c 0,-10.05344 0.042,-10.64052 0.81755,-11.41603 0.84857,-0.84857 2.26425,-1.05409 3.19508,-0.46384 0.29593,0.18765 0.77552,1.03191 1.06575,1.87613 l 0.52769,1.53495 0.90816,-1.2754 c 1.30253,-1.82923 3.05639,-2.62276 5.25028,-2.37547 3.41927,0.3854 5.28124,2.72545 3.65163,4.5892 -0.88168,1.00835 -0.96405,1.02196 -3.24534,0.53606 -2.93718,-0.6256 -4.28286,-0.19978 -5.39695,1.7078 -0.7188,1.23075 -0.86364,2.38924 -1.06721,8.53559 l -0.23553,7.11155 -1.12325,0.96619 c -1.37741,1.18479 -1.89202,1.20351 -3.2708,0.11896 z"
         id="path364"
         transform="matrix(7.5000002,0,0,-7.5000002,0,2906.0001)" /><path
         style="fill:#ffffff;stroke-width:0.408775"
         d="m 365.09585,345.60531 c -6.83118,-1.4081 -10.64267,-8.79211 -8.41332,-16.29915 0.91275,-3.07357 4.08294,-6.26794 7.099,-7.15316 6.59718,-1.9363 12.99864,0.86727 15.17931,6.64789 1.79609,4.76115 0.42513,11.30286 -2.97016,14.17253 -2.77997,2.34961 -7.14668,3.40448 -10.89483,2.63189 z m 6.27224,-4.96162 c 2.70362,-2.12666 3.60205,-8.24081 1.73088,-11.77924 -2.24867,-4.2523 -8.11082,-4.3552 -10.27734,-0.1804 -1.00682,1.9401 -1.31456,5.87235 -0.6521,8.33253 0.27806,1.03265 1.06738,2.38876 1.84014,3.16152 1.22929,1.22929 1.5765,1.35321 3.7916,1.35321 1.8836,0 2.69515,-0.20196 3.56682,-0.88762 z"
         id="path366"
         transform="matrix(7.5000002,0,0,-7.5000002,0,2906.0001)" /><path
         style="fill:#ffffff;stroke-width:0.408775"
         d="m 386.14288,345.18061 -1.07706,-0.84722 v -10.7395 c 0,-9.88512 0.0595,-10.79333 0.74754,-11.41603 1.59772,-1.44591 3.89317,-0.37558 4.34358,2.02535 l 0.28057,1.49554 1.50409,-1.46558 c 4.28136,-4.17172 10.80772,-3.41641 13.48208,1.56031 0.517,0.9621 0.69471,2.84711 0.82476,8.74872 0.18433,8.36474 -0.11762,10.25151 -1.76044,11.00002 -1.11625,0.5086 -2.73807,0.11132 -3.33806,-0.81769 -0.19046,-0.2949 -0.43827,-4.06379 -0.55068,-8.37531 -0.18633,-7.14661 -0.28029,-7.94106 -1.06356,-8.99305 -0.73201,-0.98312 -1.18934,-1.17172 -3.08991,-1.27418 -1.77758,-0.0958 -2.45585,0.0568 -3.33893,0.75145 -2.04412,1.6079 -2.31864,2.70975 -2.59774,10.42635 -0.25339,7.00587 -0.28355,7.19499 -1.27145,7.97207 -1.28001,1.00686 -1.75972,0.99891 -3.09479,-0.0512 z"
         id="path368"
         transform="matrix(7.5000002,0,0,-7.5000002,0,2906.0001)" /><path
         style="fill:#ffffff;stroke-width:0.408775"
         d=""
         id="path370"
         transform="matrix(7.5000002,0,0,-7.5000002,0,2906.0001)" /><path
         style="fill:#ffffff;stroke-width:0.408775"
         d="m 413.77101,317.5948 c -1.68288,-1.17873 -0.90154,-4.40581 1.13537,-4.68927 2.10133,-0.29241 3.27019,0.66356 3.27019,2.6746 0,1.50341 -1.15021,2.65102 -2.65703,2.65102 -0.46202,0 -1.24886,-0.28636 -1.74853,-0.63635 z"
         id="path372"
         transform="matrix(7.5000002,0,0,-7.5000002,0,2906.0001)" /><path
         style="fill:#ffffff;stroke-width:0.408775"
         d="m 413.93957,345.18061 -1.07707,-0.84722 v -10.59847 c 0,-10.05344 0.042,-10.64052 0.81755,-11.41603 0.44965,-0.44965 1.27742,-0.81755 1.83949,-0.81755 0.56206,0 1.38983,0.3679 1.83948,0.81755 0.77551,0.77551 0.81755,1.36259 0.81755,11.41603 v 10.59847 l -1.07706,0.84722 c -0.59239,0.46597 -1.30337,0.84722 -1.57997,0.84722 -0.2766,0 -0.98759,-0.38125 -1.57997,-0.84722 z"
         id="path374"
         transform="matrix(7.5000002,0,0,-7.5000002,0,2906.0001)" /><path
         style="fill:#ffffff;stroke-width:0.408775"
         d="m 433.49701,345.58019 c -6.09199,-0.76523 -9.98672,-5.93088 -9.50189,-12.60251 0.5101,-7.01926 5.16509,-11.47634 11.98595,-11.47634 4.11522,0 8.15659,2.16228 9.59501,5.13365 0.94384,1.94972 0.70363,3.03908 -0.85396,3.87268 -1.19048,0.63712 -2.11537,0.19821 -3.47618,-1.64964 -2.57188,-3.49236 -6.74956,-4.13706 -9.43121,-1.45541 -1.62123,1.62123 -2.34318,4.18135 -2.08746,7.40237 0.36146,4.55289 2.3874,6.73467 6.23101,6.7103 2.58471,-0.0164 3.56424,-0.56889 5.45812,-3.0787 1.67107,-2.21453 2.94533,-2.69467 4.18179,-1.57569 1.30288,1.1791 1.02037,3.17992 -0.72118,5.10761 -2.68748,2.97471 -6.59025,4.21334 -11.38,3.61168 z"
         id="path376"
         transform="matrix(7.5000002,0,0,-7.5000002,0,2906.0001)" /><path
         style="fill:#ffffff;stroke-width:0.408775"
         d="m 458.08181,345.61121 c -2.72644,-0.47603 -5.51139,-2.28726 -6.52183,-4.24156 -0.74267,-1.43643 -0.76506,-1.69664 -0.22864,-2.65704 0.40621,-0.72728 0.99821,-1.10426 1.86813,-1.1896 1.10465,-0.10838 1.42911,0.10838 2.44755,1.6351 1.57526,2.36144 3.41781,3.28051 6.1694,3.0773 3.24956,-0.23999 4.95469,-2.18446 3.80286,-4.33667 -0.4628,-0.86475 -2.28971,-1.65972 -7.17354,-3.12154 -3.0862,-0.92375 -3.96124,-1.38684 -5.46843,-2.89403 -1.72006,-1.72006 -1.78638,-1.8768 -1.60278,-3.78758 0.24499,-2.54973 1.4493,-4.22753 3.90121,-5.43503 1.603,-0.78944 2.57606,-0.9532 5.6178,-0.94545 4.09554,0.0104 6.82607,0.96954 8.37829,2.94287 0.96861,1.23139 1.06821,3.07695 0.20472,3.79358 -1.18815,0.98607 -2.60246,0.56948 -4.68732,-1.38066 -1.87954,-1.7581 -2.17359,-1.89058 -4.196,-1.89058 -2.6882,0 -3.99183,0.80546 -3.99183,2.4664 0,1.5868 1.04129,2.22138 5.77238,3.5178 4.66406,1.27806 6.45598,2.15917 7.91331,3.89111 0.99777,1.18578 1.09823,1.57954 0.94468,3.70239 -0.21676,2.99673 -1.1242,4.28525 -4.02049,5.70894 -2.51964,1.23855 -6.05298,1.6814 -9.12947,1.14425 z"
         id="path378"
         transform="matrix(7.5000002,0,0,-7.5000002,0,2906.0001)" /><path
         style="fill:#ffffff;stroke-width:0.408775"
         d=""
         id="path380"
         transform="matrix(7.5000002,0,0,-7.5000002,0,2906.0001)" /></g></g></svg>
